<?xml version="1.0" encoding="UTF-8" standalone="no"?>
<!DOCTYPE svg PUBLIC "-//W3C//DTD SVG 1.1//EN" "http://www.w3.org/Graphics/SVG/1.1/DTD/svg11.dtd">
<svg xmlns="http://www.w3.org/2000/svg" version="1.1" viewBox="0.00 0.00 512.00 512.00">
<g stroke-width="2.00" fill="none" stroke-linecap="butt">
<path stroke="#8c8253" vector-effect="non-scaling-stroke" d="
  M 291.26 311.76
  C 291.56 305.68 295.01 303.98 300.80 303.99
  Q 321.93 304.01 343.09 304.00
  A 1.33 1.32 22.1 0 0 344.04 303.60
  Q 353.61 293.93 361.07 282.55
  Q 361.58 281.78 360.68 281.99
  C 261.53 304.98 173.85 218.35 197.74 118.86
  A 0.32 0.32 0.0 0 0 197.26 118.52
  C 132.94 160.70 123.45 248.86 178.13 303.65
  Q 178.48 304.00 178.98 304.00
  Q 194.98 303.99 210.94 304.00
  C 216.65 304.00 220.47 305.44 220.59 311.66"
/>
<path stroke="#8c8253" vector-effect="non-scaling-stroke" d="
  M 267.28 311.85
  Q 262.34 306.75 260.53 305.47
  C 254.20 301.00 248.73 307.79 244.78 311.80"
/>
<path stroke="#918c8a" vector-effect="non-scaling-stroke" d="
  M 314.49 143.31
  C 308.92 153.14 302.28 158.52 293.36 164.86
  Q 292.81 165.24 293.40 165.57
  Q 306.93 173.08 314.39 186.67
  A 0.33 0.32 -44.7 0 0 314.96 186.67
  Q 322.51 173.00 336.20 165.50
  A 0.52 0.52 0.0 0 0 336.20 164.59
  Q 322.59 156.93 314.99 143.31
  A 0.29 0.29 0.0 0 0 314.49 143.31"
/>
</g>
<path fill="#231815" d="
  M 291.26 311.76
  C 291.56 305.68 295.01 303.98 300.80 303.99
  Q 321.93 304.01 343.09 304.00
  A 1.33 1.32 22.1 0 0 344.04 303.60
  Q 353.61 293.93 361.07 282.55
  Q 361.58 281.78 360.68 281.99
  C 261.53 304.98 173.85 218.35 197.74 118.86
  A 0.32 0.32 0.0 0 0 197.26 118.52
  C 132.94 160.70 123.45 248.86 178.13 303.65
  Q 178.48 304.00 178.98 304.00
  Q 194.98 303.99 210.94 304.00
  C 216.65 304.00 220.47 305.44 220.59 311.66
  C 220.35 317.51 216.72 319.24 211.18 319.24
  Q 153.75 319.24 96.33 319.27
  C 84.35 319.27 84.65 304.05 95.82 304.02
  Q 126.50 303.95 157.00 304.04
  Q 157.46 304.04 157.17 303.69
  C 100.69 234.49 125.90 133.14 205.93 96.09
  C 212.22 93.17 221.95 96.20 218.58 104.74
  C 178.93 205.14 273.29 299.81 374.00 261.54
  Q 377.36 260.26 378.84 260.39
  C 384.84 260.90 385.62 268.96 383.71 273.28
  Q 376.39 289.81 364.80 303.74
  Q 364.54 304.06 364.95 304.06
  Q 389.90 303.89 414.79 304.02
  Q 419.35 304.04 421.33 305.28
  C 425.47 307.88 425.50 315.29 421.32 318.00
  Q 419.40 319.24 415.29 319.25
  Q 358.17 319.25 301.05 319.25
  C 295.24 319.25 291.89 317.83 291.26 311.76
  Z"
/>
<path fill="#f4ec90" d="
  M 291.26 311.76
  L 267.28 311.85
  Q 262.34 306.75 260.53 305.47
  C 254.20 301.00 248.73 307.79 244.78 311.80
  L 220.59 311.66
  C 220.47 305.44 216.65 304.00 210.94 304.00
  Q 194.98 303.99 178.98 304.00
  Q 178.48 304.00 178.13 303.65
  C 123.45 248.86 132.94 160.70 197.26 118.52
  A 0.32 0.32 0.0 0 1 197.74 118.86
  C 173.85 218.35 261.53 304.98 360.68 281.99
  Q 361.58 281.78 361.07 282.55
  Q 353.61 293.93 344.04 303.60
  A 1.33 1.32 22.1 0 1 343.09 304.00
  Q 321.93 304.01 300.80 303.99
  C 295.01 303.98 291.56 305.68 291.26 311.76
  Z"
/>
<path fill="#231815" d="
  M 306.69 123.69
  C 310.22 118.48 317.96 118.64 321.97 122.71
  C 326.44 127.24 327.57 135.84 332.19 141.38
  Q 339.98 150.71 352.32 154.65
  C 360.52 157.26 362.53 167.93 355.71 173.27
  Q 354.51 174.21 349.11 176.30
  Q 331.32 183.21 325.24 201.97
  C 322.67 209.89 312.48 213.21 306.74 206.45
  C 304.48 203.79 303.04 198.45 301.71 195.52
  Q 297.19 185.57 286.67 179.32
  C 281.31 176.13 271.63 175.60 269.78 167.48
  C 267.73 158.50 274.92 155.40 281.77 152.68
  Q 292.23 148.53 298.48 139.60
  C 301.53 135.25 303.27 128.73 306.69 123.69
  Z
  M 314.49 143.31
  C 308.92 153.14 302.28 158.52 293.36 164.86
  Q 292.81 165.24 293.40 165.57
  Q 306.93 173.08 314.39 186.67
  A 0.33 0.32 -44.7 0 0 314.96 186.67
  Q 322.51 173.00 336.20 165.50
  A 0.52 0.52 0.0 0 0 336.20 164.59
  Q 322.59 156.93 314.99 143.31
  A 0.29 0.29 0.0 0 0 314.49 143.31
  Z"
/>
<path fill="#ffffff" d="
  M 314.49 143.31
  A 0.29 0.29 0.0 0 1 314.99 143.31
  Q 322.59 156.93 336.20 164.59
  A 0.52 0.52 0.0 0 1 336.20 165.50
  Q 322.51 173.00 314.96 186.67
  A 0.33 0.32 -44.7 0 1 314.39 186.67
  Q 306.93 173.08 293.40 165.57
  Q 292.81 165.24 293.36 164.86
  C 302.28 158.52 308.92 153.14 314.49 143.31
  Z"
/>
<path fill="#231815" d="
  M 267.28 311.85
  L 301.60 344.79
  Q 301.96 345.14 302.46 345.13
  Q 340.46 344.82 378.40 345.08
  Q 385.17 345.12 385.92 345.30
  C 394.68 347.44 393.04 360.56 382.75 360.54
  Q 330.79 360.45 302.25 360.69
  C 298.06 360.73 294.89 359.49 291.61 356.52
  Q 274.24 340.82 256.62 322.97
  Q 256.05 322.39 255.47 322.95
  Q 238.12 339.51 220.43 356.42
  C 216.83 359.87 214.82 360.50 209.53 360.50
  Q 169.01 360.50 128.50 360.47
  C 117.93 360.47 117.21 345.20 129.25 345.05
  Q 146.56 344.83 209.56 345.08
  Q 210.06 345.08 210.43 344.73
  L 244.78 311.80
  C 248.73 307.79 254.20 301.00 260.53 305.47
  Q 262.34 306.75 267.28 311.85
  Z"
/>
<rect fill="#231815" x="149.78" y="386.25" width="212.42" height="15.24" rx="7.32"/>
</svg>
