<?xml version="1.0" encoding="UTF-8" standalone="no"?>
<!DOCTYPE svg PUBLIC "-//W3C//DTD SVG 1.1//EN" "http://www.w3.org/Graphics/SVG/1.1/DTD/svg11.dtd">
<svg xmlns="http://www.w3.org/2000/svg" version="1.1" viewBox="0.00 0.00 512.00 512.00">
<g stroke-width="2.00" fill="none" stroke-linecap="butt">
<path stroke="#8c8253" vector-effect="non-scaling-stroke" d="
  M 360.87 281.98
  C 261.31 304.92 174.33 218.86 197.75 118.82
  Q 197.88 118.28 197.41 118.58
  C 133.02 160.27 123.40 248.72 178.06 303.61
  Q 178.44 304.00 178.99 304.00
  L 343.01 304.00
  A 1.54 1.52 -67.2 0 0 344.09 303.55
  Q 353.71 293.85 361.17 282.41
  A 0.28 0.28 0.0 0 0 360.87 281.98"
/>
<path stroke="#918c8a" vector-effect="non-scaling-stroke" d="
  M 314.48 143.27
  Q 306.95 156.70 293.63 164.47
  A 0.72 0.71 44.3 0 0 293.65 165.71
  Q 307.03 173.21 314.38 186.67
  A 0.33 0.33 0.0 0 0 314.96 186.67
  Q 322.50 173.00 336.20 165.50
  A 0.52 0.52 0.0 0 0 336.20 164.59
  Q 322.57 156.92 314.97 143.27
  A 0.28 0.28 0.0 0 0 314.48 143.27"
/>
</g>
<path fill="#231815" d="
  M 364.91 304.37
  Q 364.95 304.36 365.13 304.19
  Q 365.32 304.00 365.59 304.00
  Q 389.98 304.00 414.37 303.99
  Q 419.02 303.99 420.95 305.02
  C 425.42 307.42 425.65 315.11 421.42 317.93
  Q 419.44 319.25 415.16 319.25
  Q 255.79 319.25 96.43 319.25
  C 84.30 319.25 84.60 304.05 95.97 304.02
  Q 126.58 303.95 157.00 304.04
  Q 157.46 304.04 157.17 303.69
  C 100.69 234.49 125.90 133.14 205.93 96.09
  C 212.22 93.17 221.95 96.20 218.58 104.74
  C 178.93 205.14 273.29 299.81 374.00 261.54
  Q 377.36 260.26 378.85 260.39
  C 384.84 260.90 385.63 268.99 383.70 273.29
  Q 376.78 288.74 364.68 304.00
  Q 364.29 304.49 364.91 304.37
  Z
  M 360.87 281.98
  C 261.31 304.92 174.33 218.86 197.75 118.82
  Q 197.88 118.28 197.41 118.58
  C 133.02 160.27 123.40 248.72 178.06 303.61
  Q 178.44 304.00 178.99 304.00
  L 343.01 304.00
  A 1.54 1.52 -67.2 0 0 344.09 303.55
  Q 353.71 293.85 361.17 282.41
  A 0.28 0.28 0.0 0 0 360.87 281.98
  Z"
/>
<path fill="#f4ec90" d="
  M 197.75 118.82
  C 174.33 218.86 261.31 304.92 360.87 281.98
  A 0.28 0.28 0.0 0 1 361.17 282.41
  Q 353.71 293.85 344.09 303.55
  A 1.54 1.52 -67.2 0 1 343.01 304.00
  L 178.99 304.00
  Q 178.44 304.00 178.06 303.61
  C 123.40 248.72 133.02 160.27 197.41 118.58
  Q 197.88 118.28 197.75 118.82
  Z"
/>
<path fill="#231815" d="
  M 306.69 123.69
  C 310.22 118.48 317.96 118.64 321.97 122.71
  C 326.44 127.24 327.57 135.84 332.19 141.38
  Q 339.98 150.71 352.32 154.65
  C 360.52 157.26 362.53 167.93 355.71 173.27
  Q 354.51 174.21 349.11 176.30
  Q 331.32 183.21 325.24 201.97
  C 322.67 209.89 312.48 213.21 306.74 206.45
  C 304.48 203.79 303.04 198.45 301.71 195.52
  Q 297.19 185.57 286.67 179.32
  C 281.31 176.13 271.63 175.60 269.78 167.48
  C 267.73 158.50 274.92 155.40 281.77 152.68
  Q 292.23 148.53 298.48 139.60
  C 301.53 135.25 303.27 128.73 306.69 123.69
  Z
  M 314.48 143.27
  Q 306.95 156.70 293.63 164.47
  A 0.72 0.71 44.3 0 0 293.65 165.71
  Q 307.03 173.21 314.38 186.67
  A 0.33 0.33 0.0 0 0 314.96 186.67
  Q 322.50 173.00 336.20 165.50
  A 0.52 0.52 0.0 0 0 336.20 164.59
  Q 322.57 156.92 314.97 143.27
  A 0.28 0.28 0.0 0 0 314.48 143.27
  Z"
/>
<path fill="#ffffff" d="
  M 314.48 143.27
  A 0.28 0.28 0.0 0 1 314.97 143.27
  Q 322.57 156.92 336.20 164.59
  A 0.52 0.52 0.0 0 1 336.20 165.50
  Q 322.50 173.00 314.96 186.67
  A 0.33 0.33 0.0 0 1 314.38 186.67
  Q 307.03 173.21 293.65 165.71
  A 0.72 0.71 44.3 0 1 293.63 164.47
  Q 306.95 156.70 314.48 143.27
  Z"
/>
<path fill="#231815" d="
  M 301.43 360.87
  C 288.99 373.54 275.60 385.77 262.63 397.92
  C 258.35 401.93 254.35 402.69 250.00 398.56
  Q 230.24 379.76 210.59 360.85
  Q 210.24 360.50 209.74 360.50
  Q 169.12 360.50 128.50 360.48
  C 117.75 360.47 117.57 344.96 129.00 345.00
  Q 166.88 345.12 204.75 344.84
  C 212.42 344.79 215.58 344.44 221.70 350.02
  Q 239.08 365.89 256.22 383.40
  A 0.16 0.16 0.0 0 0 256.50 383.26
  Q 256.40 382.74 256.83 382.33
  Q 275.26 364.63 293.75 347.00
  C 295.22 345.59 298.82 345.00 301.20 345.00
  Q 339.81 344.96 378.42 345.05
  Q 385.02 345.06 385.93 345.29
  C 392.91 347.05 393.47 357.26 386.94 359.80
  Q 385.13 360.51 380.47 360.50
  Q 341.38 360.49 302.29 360.51
  A 1.21 1.18 21.7 0 0 301.43 360.87
  Z"
/>
<rect fill="#231815" x="149.79" y="386.24" width="70.72" height="15.24" rx="7.27"/>
<rect fill="#231815" x="291.48" y="386.24" width="70.70" height="15.24" rx="7.21"/>
</svg>
