<?xml version="1.0" encoding="UTF-8" standalone="no"?>
<!DOCTYPE svg PUBLIC "-//W3C//DTD SVG 1.1//EN" "http://www.w3.org/Graphics/SVG/1.1/DTD/svg11.dtd">
<svg xmlns="http://www.w3.org/2000/svg" version="1.1" viewBox="0.00 0.00 512.00 512.00">
<g stroke-width="2.00" fill="none" stroke-linecap="butt">
<path stroke="#8e6721" vector-effect="non-scaling-stroke" d="
  M 291.21 313.23
  Q 291.80 305.19 300.26 305.22
  Q 313.68 305.25 327.24 305.25
  Q 327.75 305.25 328.00 304.81
  Q 340.95 282.26 339.23 256.91
  C 336.09 210.54 293.52 174.22 247.03 179.90
  C 187.32 187.20 153.37 251.54 183.75 304.86
  A 0.86 0.85 -15.2 0 0 184.51 305.29
  Q 197.68 305.11 210.85 305.40
  Q 215.54 305.50 217.40 306.69
  Q 220.49 308.66 220.84 313.25"
/>
<path stroke="#8e6721" vector-effect="non-scaling-stroke" d="
  M 267.20 313.32
  C 257.83 303.31 254.43 303.10 244.80 313.33"
/>
</g>
<rect fill="#231815" x="248.25" y="93.25" width="15.50" height="49.02" rx="7.35"/>
<rect fill="#231815" x="-7.70" y="-24.56" transform="translate(183.40,137.22) rotate(-30.0)" width="15.40" height="49.12" rx="7.25"/>
<rect fill="#231815" x="-7.69" y="-24.54" transform="translate(328.54,137.19) rotate(30.2)" width="15.38" height="49.08" rx="7.25"/>
<path fill="#231815" d="
  M 291.21 313.23
  Q 291.80 305.19 300.26 305.22
  Q 313.68 305.25 327.24 305.25
  Q 327.75 305.25 328.00 304.81
  Q 340.95 282.26 339.23 256.91
  C 336.09 210.54 293.52 174.22 247.03 179.90
  C 187.32 187.20 153.37 251.54 183.75 304.86
  A 0.86 0.85 -15.2 0 0 184.51 305.29
  Q 197.68 305.11 210.85 305.40
  Q 215.54 305.50 217.40 306.69
  Q 220.49 308.66 220.84 313.25
  Q 220.23 317.37 217.64 319.35
  Q 215.81 320.75 211.53 320.75
  Q 154.02 320.75 96.50 320.75
  Q 92.53 320.75 90.73 319.62
  C 86.49 316.97 86.54 309.56 90.58 306.87
  Q 92.66 305.50 97.32 305.50
  Q 131.64 305.53 165.95 305.48
  Q 166.49 305.48 166.27 304.99
  C 142.08 249.95 168.42 187.39 225.92 168.67
  C 307.93 141.96 382.25 227.83 345.20 305.00
  Q 344.96 305.51 345.52 305.51
  Q 381.40 305.51 417.24 305.50
  C 426.47 305.50 427.97 320.76 415.58 320.76
  Q 358.32 320.73 301.07 320.76
  C 295.18 320.77 291.93 319.31 291.21 313.23
  Z"
/>
<rect fill="#231815" x="-24.57" y="-7.68" transform="translate(130.36,190.29) rotate(30.1)" width="49.14" height="15.36" rx="7.28"/>
<rect fill="#231815" x="-24.55" y="-7.70" transform="translate(381.62,190.31) rotate(-30.1)" width="49.10" height="15.40" rx="7.29"/>
<path fill="#f8b62d" d="
  M 291.21 313.23
  L 267.20 313.32
  C 257.83 303.31 254.43 303.10 244.80 313.33
  L 220.84 313.25
  Q 220.49 308.66 217.40 306.69
  Q 215.54 305.50 210.85 305.40
  Q 197.68 305.11 184.51 305.29
  A 0.86 0.85 -15.2 0 1 183.75 304.86
  C 153.37 251.54 187.32 187.20 247.03 179.90
  C 293.52 174.22 336.09 210.54 339.23 256.91
  Q 340.95 282.26 328.00 304.81
  Q 327.75 305.25 327.24 305.25
  Q 313.68 305.25 300.26 305.22
  Q 291.80 305.19 291.21 313.23
  Z"
/>
<rect fill="#231815" x="86.29" y="255.25" width="49.20" height="15.24" rx="7.28"/>
<rect fill="#231815" x="376.50" y="255.25" width="49.20" height="15.24" rx="7.30"/>
<path fill="#231815" d="
  M 267.20 313.32
  L 301.46 346.15
  Q 301.82 346.50 302.33 346.50
  Q 342.18 346.49 381.99 346.52
  C 395.00 346.53 394.64 362.06 382.47 362.01
  Q 341.39 361.87 300.32 362.20
  C 297.05 362.22 293.51 359.86 290.81 357.38
  Q 273.56 341.51 256.68 324.51
  A 0.90 0.89 -44.3 0 0 255.42 324.50
  Q 236.95 342.21 218.24 359.99
  C 216.82 361.34 213.34 361.99 211.05 361.99
  Q 169.90 362.01 128.75 362.00
  C 117.51 362.00 118.30 346.52 127.81 346.51
  Q 168.73 346.50 209.66 346.50
  Q 210.16 346.50 210.53 346.15
  L 244.80 313.33
  C 254.43 303.10 257.83 303.31 267.20 313.32
  Z"
/>
<rect fill="#231815" x="149.78" y="387.75" width="212.44" height="15.24" rx="7.31"/>
</svg>
