<?xml version="1.0" encoding="UTF-8" standalone="no"?>
<!DOCTYPE svg PUBLIC "-//W3C//DTD SVG 1.1//EN" "http://www.w3.org/Graphics/SVG/1.1/DTD/svg11.dtd">
<svg xmlns="http://www.w3.org/2000/svg" version="1.1" viewBox="0.00 0.00 512.00 512.00">
<path stroke="#8e6721" stroke-width="2.00" fill="none" stroke-linecap="butt" vector-effect="non-scaling-stroke" d="
  M 202.18 199.13
  C 171.31 224.92 163.70 269.60 183.80 304.84
  Q 184.03 305.25 184.50 305.25
  L 327.25 305.25
  Q 327.74 305.25 327.98 304.83
  C 352.64 262.02 335.74 208.52 291.42 187.25
  C 262.00 173.13 227.12 178.29 202.18 199.13"
/>
<rect fill="#231815" x="-7.75" y="-24.50" transform="translate(256.00,117.75) rotate(-0.1)" width="15.50" height="49.00" rx="7.37"/>
<rect fill="#231815" x="-7.70" y="-24.55" transform="translate(183.48,137.19) rotate(-30.1)" width="15.40" height="49.10" rx="7.27"/>
<rect fill="#231815" x="-7.72" y="-24.55" transform="translate(328.59,137.22) rotate(30.1)" width="15.44" height="49.10" rx="7.30"/>
<path fill="#231815" d="
  M 166.46 305.02
  C 150.04 270.43 155.94 228.10 180.33 199.08
  C 224.38 146.68 307.20 154.22 341.20 213.09
  Q 366.37 256.67 345.52 305.02
  Q 345.32 305.49 345.83 305.49
  Q 380.48 305.51 415.15 305.51
  Q 418.89 305.51 420.59 306.33
  C 425.52 308.70 425.66 316.67 421.44 319.43
  Q 419.40 320.76 415.26 320.76
  Q 256.18 320.76 97.11 320.75
  Q 92.83 320.75 91.05 319.81
  C 86.51 317.40 86.43 309.63 90.58 306.88
  Q 92.66 305.49 97.33 305.50
  Q 131.75 305.55 166.17 305.48
  Q 166.67 305.48 166.46 305.02
  Z
  M 202.18 199.13
  C 171.31 224.92 163.70 269.60 183.80 304.84
  Q 184.03 305.25 184.50 305.25
  L 327.25 305.25
  Q 327.74 305.25 327.98 304.83
  C 352.64 262.02 335.74 208.52 291.42 187.25
  C 262.00 173.13 227.12 178.29 202.18 199.13
  Z"
/>
<rect fill="#231815" x="-24.55" y="-7.70" transform="translate(130.36,190.36) rotate(30.2)" width="49.10" height="15.40" rx="7.24"/>
<rect fill="#231815" x="-24.55" y="-7.69" transform="translate(381.65,190.38) rotate(-30.2)" width="49.10" height="15.38" rx="7.25"/>
<path fill="#f8b62d" d="
  M 183.80 304.84
  C 163.70 269.60 171.31 224.92 202.18 199.13
  C 227.12 178.29 262.00 173.13 291.42 187.25
  C 335.74 208.52 352.64 262.02 327.98 304.83
  Q 327.74 305.25 327.25 305.25
  L 184.50 305.25
  Q 184.03 305.25 183.80 304.84
  Z"
/>
<rect fill="#231815" x="86.29" y="255.25" width="49.20" height="15.24" rx="7.28"/>
<rect fill="#231815" x="376.50" y="255.25" width="49.20" height="15.24" rx="7.30"/>
<path fill="#231815" d="
  M 256.66 384.02
  C 269.08 371.89 281.72 359.79 294.46 347.95
  Q 295.25 347.22 297.77 346.77
  Q 299.17 346.52 301.24 346.52
  Q 341.95 346.39 382.64 346.62
  Q 386.33 346.64 388.13 347.72
  C 392.73 350.46 392.48 358.37 388.13 360.80
  Q 385.98 361.99 380.66 362.00
  Q 341.53 362.03 302.41 361.97
  Q 301.91 361.97 301.55 362.32
  Q 281.83 381.20 262.12 400.14
  C 258.06 404.04 253.58 403.51 249.60 399.71
  Q 230.01 381.02 210.45 362.32
  Q 210.08 361.97 209.57 361.97
  Q 169.79 362.07 130.09 361.96
  Q 125.99 361.95 124.19 361.06
  C 118.82 358.42 119.58 349.11 124.91 347.18
  Q 126.88 346.47 133.17 346.49
  Q 172.08 346.62 211.00 346.31
  C 214.27 346.29 217.50 347.81 220.11 350.18
  Q 238.09 366.46 255.35 384.01
  A 0.93 0.93 0.0 0 0 256.66 384.02
  Z"
/>
<rect fill="#231815" x="149.80" y="387.75" width="70.70" height="15.24" rx="7.22"/>
<rect fill="#231815" x="291.48" y="387.75" width="70.72" height="15.24" rx="7.22"/>
</svg>
